HIERARCHY
ROOT pelvis
{
  OFFSET 0 100 0
  CHANNELS 6 Xposition Yposition Zposition Zrotation Xrotation Yrotation
  JOINT pelvis_right_femur
  {
    OFFSET -10.78128 -3.44521 -0.5502486
    CHANNELS 3 Zrotation Xrotation Yrotation
    JOINT right_femur_tibia
    {
      OFFSET -0.8047443 -44.0398 -0.1307829
      CHANNELS 3 Zrotation Xrotation Yrotation
      JOINT right_tibia_foot
      {
        OFFSET 3.006224 -47.83518 -5
        CHANNELS 3 Zrotation Xrotation Yrotation
        End Site
        {
          OFFSET 0 -5 15
        }
      }
    }
  }
  JOINT pelvis_left_femur
  {
    OFFSET 10.78128 -3.44521 -0.5502486
    CHANNELS 3 Zrotation Xrotation Yrotation
    JOINT left_femur_tibia
    {
      OFFSET 0.8047443 -44.0398 -0.1307829
      CHANNELS 3 Zrotation Xrotation Yrotation
      JOINT left_tibia_foot
      {
        OFFSET -4.370144 -48.10324 -4.275266
        CHANNELS 3 Zrotation Xrotation Yrotation
        End Site
        {
          OFFSET 0 -5 15
        }
      }
    }
  }
  JOINT pelvis_spine1
  {
    OFFSET 0 6.468898 -3.129235
    CHANNELS 3 Zrotation Xrotation Yrotation
    JOINT spine1
    {
      OFFSET 0 23.15396 4.99043
      CHANNELS 3 Zrotation Xrotation Yrotation
      JOINT spine2
      {
        OFFSET 0 20.79997 -5.064912
        CHANNELS 3 Zrotation Xrotation Yrotation
        JOINT neck
        {
          OFFSET 0 14.38658 9.616178
          CHANNELS 3 Zrotation Xrotation Yrotation
          End Site
          {
            OFFSET 0 20 0
          }
        }
      }
      JOINT right_manubrium
      {
        OFFSET -5.722621 16.35077 3.967754
        CHANNELS 3 Zrotation Xrotation Yrotation
        JOINT right_clavicle
        {
          OFFSET -13.16364 1.694482 -4.693211
          CHANNELS 3 Zrotation Xrotation Yrotation
          JOINT right_humerus
          {
            OFFSET -28.5034 -0.3100689 -2.792744
            CHANNELS 3 Zrotation Xrotation Yrotation
            JOINT right_radius
            {
              OFFSET -25.15693 0.02248979 -1.271978
              CHANNELS 3 Zrotation Xrotation Yrotation
              End Site
              {
                OFFSET -15 0 0
              }
            }
          }
        }
      }
      JOINT left_manubrium
      {
        OFFSET 5.722621 16.35077 3.967754
        CHANNELS 3 Zrotation Xrotation Yrotation
        JOINT left_clavicle
        {
          OFFSET 13.16364 1.694482 -4.693211
          CHANNELS 3 Zrotation Xrotation Yrotation
          JOINT left_humerus
          {
            OFFSET 29.39168 -1.063119 -2.237045
            CHANNELS 3 Zrotation Xrotation Yrotation
            JOINT left_radius
            {
              OFFSET 24.59957 -0.9528479 0.9047498
              CHANNELS 3 Zrotation Xrotation Yrotation
              End Site
              {
                OFFSET 15 -0 -0
              }
            }
          }
        }
      }
    }
  }
}
MOTION
Frames: 11
Frame Time: 0.0416666666667
0 103.5113 0 -0.001565283 0.04530106 0.1942968 3.978213 -14.57629 7.262139 2.369598e-05 34.94339 -1.15807e-05 -9.282415 -16.71034 -1.89414 -6.740738 6.549805 -23.14951 -1.193047e-05 4.668371 1.466684e-05 5.475732 -17.61785 24.91447 -3.389973 -1.900452 3.715862 2.517765 7.246751 -6.609931 1.258483 23.04515 7.340332 3.428191 -24.94859 9.663198 5.51685 -19.29026 10.8648 84.07906 36.45711 -15.4825 -2.310191e-06 5.89036e-06 16.23595 -5.738522 6.940498 4.867936 5.37137 -17.76609 -0.8741685 -97.24732 31.58939 25.24378 -1.043236e-06 2.761162e-06 -12.64786 3.695103 17.99849 9.569114
0.3589276 103.5751 1.68301 0.06220591 0.1645531 0.489314 3.828281 -16.1164 7.269067 2.158173e-05 36.79598 -1.089422e-05 -8.971469 -15.44169 -1.986224 -6.904764 8.127803 -23.28373 -1.155557e-05 4.493661 1.483891e-05 5.477672 -18.17732 24.68725 -3.529664 -1.94343 3.550795 2.539392 7.323043 -6.824021 1.185211 22.98919 7.564903 3.592478 -25.06472 9.733426 5.805655 -18.98538 10.91104 84.71451 36.78179 -16.32125 -1.897116e-06 5.334022e-06 15.69756 -5.848227 7.013776 4.852129 5.418375 -17.97501 -0.9895529 -96.97232 31.69444 24.65767 -1.341837e-06 2.562053e-06 -13.26197 3.652658 17.73906 9.724551
0.7210227 103.6828 3.473339 0.08460994 0.3855174 0.8625419 3.79127 -17.96166 7.182526 1.901755e-05 37.29329 -9.67824e-06 -8.658965 -14.23383 -2.068147 -6.949178 9.68899 -23.17692 -1.039191e-05 4.383042 1.414735e-05 5.411965 -18.75059 24.25574 -3.598862 -2.009238 3.408719 2.598124 7.462123 -7.119344 1.083949 22.83145 7.777752 3.754773 -25.19683 9.74174 6.037512 -18.7268 10.99015 85.42323 37.04406 -17.36391 -1.490225e-06 4.678537e-06 15.10638 -6.069513 7.222792 4.873766 5.523636 -18.37763 -1.160587 -96.43314 31.62228 23.86684 -1.450805e-06 2.275525e-06 -14.34763 3.706522 17.42835 9.7476
1.074231 103.7562 5.401096 0.05387369 0.7151856 1.281501 3.883953 -19.99142 7.002268 1.629489e-05 36.16387 -8.118514e-06 -8.374855 -13.22008 -2.120111 -6.861132 11.08101 -22.81222 -8.412035e-06 4.301474 1.249862e-05 5.285909 -19.28879 23.62946 -3.582312 -2.098484 3.306388 2.697299 7.656614 -7.481617 0.9578214 22.56196 7.957991 3.899605 -25.33956 9.676833 6.185939 -18.54811 11.09969 86.11369 37.2217 -18.5252 -1.129728e-06 3.969989e-06 14.51571 -6.387423 7.565696 4.936795 5.684917 -18.96157 -1.375189 -95.62995 31.34537 22.92316 -1.334249e-06 1.907333e-06 -15.87039 3.868728 17.08848 9.609733
1.407232 103.7279 7.517421 -0.01458026 1.094244 1.72074 4.073093 -22.18647 6.749242 1.350449e-05 33.71086 -6.39879e-06 -8.063012 -12.31261 -2.18697 -6.668694 12.36042 -22.18183 -5.703305e-06 4.415238 1.004707e-05 5.022242 -19.80493 22.80349 -3.490691 -2.191698 3.240376 2.819877 7.906418 -7.90339 0.8185789 22.21981 8.109917 4.031745 -25.45861 9.547671 6.262167 -18.41271 11.23675 86.89719 37.28615 -19.84688 -8.105056e-07 3.194472e-06 13.90463 -6.853765 8.044272 5.051676 5.898843 -19.71487 -1.639299 -94.6403 30.89232 21.80232 -1.016412e-06 1.462156e-06 -17.81784 4.077116 16.67523 9.399301
1.713748 103.549 9.831728 -0.1202557 1.504853 2.151627 4.339874 -24.25832 6.463521 1.107515e-05 30.2254 -4.849365e-06 -7.786964 -11.63706 -2.2302 -6.400372 13.34883 -21.38475 -2.656534e-06 4.665583 7.111949e-06 4.692705 -20.20371 21.87735 -3.335388 -2.2871 3.216943 2.957723 8.172496 -8.328061 0.6772872 21.8168 8.213144 4.133533 -25.54891 9.363821 6.26499 -18.33481 11.37915 87.53515 37.26283 -21.0979 -5.601196e-07 2.447383e-06 13.34474 -7.358931 8.580611 5.190097 6.125415 -20.52065 -1.909349 -93.51463 30.30782 20.66337 -5.740188e-07 9.81035e-07 -19.90106 4.325902 16.25076 9.106291
1.990026 103.2105 12.37333 -0.2369825 1.883408 2.559652 4.642008 -26.20772 6.189884 8.754658e-06 26.38016 -3.450659e-06 -7.482962 -11.00429 -2.29968 -6.108689 14.1788 -20.45858 4.627489e-07 5.339948 4.04155e-06 4.226587 -20.49253 20.85901 -3.143246 -2.367179 3.224632 3.090535 8.459244 -8.749065 0.5423257 21.40341 8.29137 4.22638 -25.59232 9.146945 6.245468 -18.25045 11.52886 88.176 37.17394 -22.35376 -3.294059e-07 1.677802e-06 12.78202 -7.933071 9.162683 5.349638 6.345696 -21.349 -2.190906 -92.36868 29.65912 19.50087 -1.128126e-07 4.751351e-07 -22.05887 4.537612 15.76299 8.851288
2.237516 102.7417 15.14712 -0.3396272 2.139303 2.935603 4.927125 -27.7415 5.973493 6.74807e-06 22.91697 -2.344611e-06 -7.176392 -10.42627 -2.409758 -5.844143 14.7807 -19.52464 3.119118e-06 6.525967 1.407521e-06 3.648175 -20.60393 19.87353 -2.942855 -2.409515 3.25316 3.188718 8.723491 -9.096136 0.4399568 21.04693 8.330761 4.296835 -25.55095 8.926714 6.208974 -18.12824 11.65376 88.71426 37.01101 -23.43275 -1.356397e-07 9.866716e-07 12.24874 -8.498381 9.695441 5.494338 6.516598 -22.06026 -2.449858 -91.31653 29.05952 18.42372 2.652696e-07 3.230018e-08 -23.95238 4.658921 15.25754 8.69852
2.47196 102.238 18.18813 -0.3983957 2.220715 3.286487 5.151518 -28.64563 5.866257 4.238225e-06 20.70642 -1.257695e-06 -6.792551 -9.63891 -2.567133 -5.671857 15.07404 -18.59438 4.902566e-06 8.639245 -4.922643e-07 2.895302 -20.44857 18.92547 -2.760118 -2.41258 3.327213 3.220263 9.008671 -9.352447 0.3640582 20.77571 8.366938 4.38318 -25.43328 8.710389 6.238812 -17.95008 11.78477 89.2573 36.84308 -24.3532 1.399376e-07 2.167526e-07 11.75814 -9.129716 10.19359 5.667565 6.58873 -22.60849 -2.698898 -90.53112 28.55339 17.57155 3.632363e-07 -3.59005e-07 -25.44066 4.592001 14.65312 8.806856
2.712577 101.8449 21.4985 -0.4182242 2.105007 3.617747 5.32549 -28.65947 5.887836 1.057698e-06 20.13913 -1.285149e-07 -6.442133 -8.612494 -2.719436 -5.604599 14.92487 -17.74629 5.226832e-06 11.92409 -1.166735e-06 2.054407 -19.8675 18.07833 -2.591206 -2.389079 3.447015 3.176982 9.313482 -9.470428 0.3185511 20.58392 8.384522 4.478016 -25.25245 8.497919 6.336417 -17.7148 11.9123 89.58918 36.69735 -24.94976 5.467305e-07 -6.08967e-07 11.29966 -9.715687 10.58858 5.822064 6.503125 -22.90278 -2.924479 -89.96798 28.16578 17.07264 1.258966e-08 -6.451838e-07 -26.24951 4.377622 14.02049 9.116966
2.967238 101.697 25.07 -0.4137088 1.791155 3.919002 5.506445 -27.79344 6.038463 -2.45648e-06 20.79564 1.038508e-06 -6.197973 -7.521005 -2.871504 -5.592153 14.30186 -16.97803 3.993387e-06 16.52912 -4.537907e-07 1.134575 -18.82387 17.35638 -2.409222 -2.333288 3.612632 3.07366 9.625838 -9.448459 0.3130323 20.4868 8.358359 4.562652 -25.00982 8.288004 6.462911 -17.42961 12.03066 89.72243 36.54279 -25.23704 1.024061e-06 -1.385965e-06 10.85809 -10.19851 10.87319 5.913882 6.271937 -22.96242 -3.11816 -89.62229 27.90201 16.90089 -7.153343e-07 -7.87933e-07 -26.4116 4.06388 13.41617 9.559423
